[h264 @ 0x55cdbae31e00] Reinit context to 1280x704, pix_fmt: yuv420p
Input #0, mov,mp4,m4a,3gp,3g2,mj2, from '/var/www/html/project/media/video/original/lv_0_20220304211306.mp4':
  Metadata:
    major_brand     : isom
    minor_version   : 512
    compatible_brands: isomiso2avc1mp41
    Hw              : 1
                    : 
    LvMetaInfo      : {"data":{"appVersion":"5.4.0","editType":"edit","exportType":"export","filterId":"","infoStickerId":"","launchMode":"launch","musicId":"","os":"android","product":"vicut","region":"IT","resourceTypeApplied":"","stickerId":"","templateId":"","textSpecialEf
    bitRate         : 4000000
                    : 
    copyright       : b5cec41ac45cf9ed34741f03f735a1d9
    maxrate         : 30000000
                    : 
    te_is_reencode  : 1
                    : 
    encoder         : bytevehwavc
  Duration: 00:00:55.54, start: 0.000000, bitrate: 4872 kb/s
    Stream #0:0(und): Video: h264 (Baseline), 1 reference frame (avc1 / 0x31637661), yuv420p(tv, bt709, left), 1280x704, 4742 kb/s, 25 fps, 25 tbr, 1000k tbn, 2000k tbc (default)
    Metadata:
      handler_name    : VideoHandler
    Stream #0:1(und): Audio: aac (LC) (mp4a / 0x6134706D), 44100 Hz, stereo, fltp, 128 kb/s (default)
    Metadata:
      handler_name    : SoundHandler
[h264 @ 0x55cdbae46240] Reinit context to 1280x720, pix_fmt: yuv420p
Input #1, mov,mp4,m4a,3gp,3g2,mj2, from '/var/www/html/project/static/images/templates/Codino.mp4':
  Metadata:
    major_brand     : mp42
    minor_version   : 1
    compatible_brands: isommp41mp42
    creation_time   : 2021-07-11T07:02:58.000000Z
  Duration: 00:00:02.00, start: 0.000000, bitrate: 1007 kb/s
    Stream #1:0(ita): Audio: aac (LC) (mp4a / 0x6134706D), 44100 Hz, stereo, fltp, 102 kb/s (default)
    Metadata:
      creation_time   : 2021-07-11T07:02:58.000000Z
      handler_name    : Core Media Audio
    Stream #1:1(und): Video: h264 (High), 1 reference frame (avc1 / 0x31637661), yuv420p(tv, bt709, progressive, left), 1280x720 [SAR 1:1 DAR 16:9], 813 kb/s, 25 fps, 25 tbr, 25k tbn, 50k tbc (default)
    Metadata:
      creation_time   : 2021-07-11T07:02:58.000000Z
      handler_name    : Core Media Video
[Parsed_scale_0 @ 0x55cdbaf35fc0] w:1280 h:720 flags:'bilinear' interl:0
[Parsed_scale_2 @ 0x55cdbae93c80] w:1280 h:720 flags:'bilinear' interl:0
Stream mapping:
  Stream #0:0 (h264) -> scale
  Stream #0:1 (aac) -> concat:in0:a0
  Stream #1:0 (aac) -> concat:in1:a0
  Stream #1:1 (h264) -> scale
  concat:out:v0 -> Stream #0:0 (libx264)
  concat:out:a0 -> Stream #0:1 (aac)
Press [q] to stop, [?] for help
[h264 @ 0x55cdbae7c040] Reinit context to 1280x704, pix_fmt: yuv420p
[h264 @ 0x55cdbb2ac7c0] Reinit context to 1280x720, pix_fmt: yuv420p
[Parsed_scale_0 @ 0x55cdbc16d540] w:1280 h:720 flags:'bilinear' interl:0
[Parsed_scale_2 @ 0x55cdbc175b80] w:1280 h:720 flags:'bilinear' interl:0
[graph 0 input from stream 0:0 @ 0x55cdbc178d80] w:1280 h:704 pixfmt:yuv420p tb:1/1000000 fr:25/1 sar:0/1 sws_param:flags=2
[graph 0 input from stream 1:1 @ 0x55cdbc179d40] w:1280 h:720 pixfmt:yuv420p tb:1/25000 fr:25/1 sar:1/1 sws_param:flags=2
[graph_0_in_0_1 @ 0x55cdbc17acc0] tb:1/44100 samplefmt:fltp samplerate:44100 chlayout:0x3
[graph_0_in_1_0 @ 0x55cdbc17be00] tb:1/44100 samplefmt:fltp samplerate:44100 chlayout:0x3
[Parsed_scale_0 @ 0x55cdbc16d540] w:1280 h:704 fmt:yuv420p sar:0/1 -> w:1280 h:720 fmt:yuv420p sar:0/1 flags:0x2
[Parsed_setsar_1 @ 0x55cdbc1754c0] w:1280 h:720 sar:0/1 dar:16/9 -> sar:1/1 dar:16/9
[Parsed_scale_2 @ 0x55cdbc175b80] w:1280 h:720 fmt:yuv420p sar:1/1 -> w:1280 h:720 fmt:yuv420p sar:1/1 flags:0x2
[Parsed_setsar_3 @ 0x55cdbc1760c0] w:1280 h:720 sar:1/1 dar:16/9 -> sar:1/1 dar:16/9
[libx264 @ 0x55cdbaf27200] using SAR=1/1
[libx264 @ 0x55cdbaf27200] using cpu capabilities: MMX2 SSE2Fast SSSE3 SSE4.2 AVX FMA3 BMI2 AVX2
[libx264 @ 0x55cdbaf27200] profile High, level 3.1
[libx264 @ 0x55cdbaf27200] 264 - core 155 r2917 0a84d98 - H.264/MPEG-4 AVC codec - Copyleft 2003-2018 - http://www.videolan.org/x264.html - options: cabac=1 ref=1 deblock=1:0:0 analyse=0x3:0x113 me=hex subme=2 psy=1 psy_rd=1.00:0.00 mixed_ref=0 me_range=16 chroma_me=1 trellis=0 8x8dct=1 cqm=0 deadzone=21,11 fast_pskip=1 chroma_qp_offset=0 threads=22 lookahead_threads=5 sliced_threads=0 nr=0 decimate=1 interlaced=0 bluray_compat=0 constrained_intra=0 bframes=3 b_pyramid=2 b_adapt=1 b_bias=0 direct=1 weightb=1 open_gop=0 weightp=1 keyint=250 keyint_min=25 scenecut=40 intra_refresh=0 rc_lookahead=10 rc=crf mbtree=1 crf=18.0 qcomp=0.60 qpmin=0 qpmax=69 qpstep=4 ip_ratio=1.40 aq=1:1.00
Output #0, mp4, to '/var/www/html/project/media/video/watermarks/lv_0_20220304211306.mp4':
  Metadata:
    major_brand     : isom
    minor_version   : 512
    compatible_brands: isomiso2avc1mp41
    Hw              : 1
                    : 
    LvMetaInfo      : {"data":{"appVersion":"5.4.0","editType":"edit","exportType":"export","filterId":"","infoStickerId":"","launchMode":"launch","musicId":"","os":"android","product":"vicut","region":"IT","resourceTypeApplied":"","stickerId":"","templateId":"","textSpecialEf
    bitRate         : 4000000
                    : 
    copyright       : b5cec41ac45cf9ed34741f03f735a1d9
    maxrate         : 30000000
                    : 
    te_is_reencode  : 1
                    : 
    encoder         : Lavf58.29.100
    Stream #0:0: Video: h264 (libx264), 1 reference frame (avc1 / 0x31637661), yuv420p(progressive), 1280x720 [SAR 1:1 DAR 16:9], q=-1--1, 25 fps, 12800 tbn, 25 tbc (default)
    Metadata:
      encoder         : Lavc58.54.100 libx264
    Side data:
      cpb: bitrate max/min/avg: 0/0/0 buffer size: 0 vbv_delay: -1
    Stream #0:1: Audio: aac (LC) (mp4a / 0x6134706D), 44100 Hz, stereo, fltp, delay 1024, 128 kb/s (default)
    Metadata:
      encoder         : Lavc58.54.100 aac
[Parsed_concat_4 @ 0x55cdbc176d80] EOF on in0:v0, 1 streams left in segment.
[Parsed_concat_4 @ 0x55cdbc176d80] EOF on in0:a0, 0 streams left in segment.
[Parsed_concat_4 @ 0x55cdbc176d80] Segment finished at pts=55520000
[Parsed_concat_4 @ 0x55cdbc176d80] EOF on in1:a0, 1 streams left in segment.
[Parsed_concat_4 @ 0x55cdbc176d80] EOF on in1:v0, 0 streams left in segment.
[Parsed_concat_4 @ 0x55cdbc176d80] Segment finished at pts=57538685
No more output streams to write to, finishing.
frame= 1438 fps=189 q=-1.0 Lsize=   31367kB time=00:00:57.53 bitrate=4465.8kbits/s speed=7.57x    
[AVIOContext @ 0x55cdbae30180] Statistics: 0 seeks, 16 writeouts
video:30426kB audio:894kB subtitle:0kB other streams:0kB global headers:0kB muxing overhead: 0.150017%
Input file #0 (/var/www/html/project/media/video/original/lv_0_20220304211306.mp4):
  Input stream #0:0 (video): 1388 packets read (32915221 bytes); 1388 frames decoded; 
  Input stream #0:1 (audio): 2392 packets read (888675 bytes); 2390 frames decoded (2447360 samples); 
  Total: 3780 packets (33803896 bytes) demuxed
Input file #1 (/var/www/html/project/static/images/templates/Codino.mp4):
  Input stream #1:0 (audio): 89 packets read (26579 bytes); 87 frames decoded (89024 samples); 
  Input stream #1:1 (video): 50 packets read (203365 bytes); 50 frames decoded; 
  Total: 139 packets (229944 bytes) demuxed
Output file #0 (/var/www/html/project/media/video/watermarks/lv_0_20220304211306.mp4):
  Output stream #0:0 (video): 1438 frames encoded; 1438 packets muxed (31156061 bytes); 
  Output stream #0:1 (audio): 2478 frames encoded (2537456 samples); 2479 packets muxed (915566 bytes); 
  Total: 3917 packets (32071627 bytes) muxed
[AVIOContext @ 0x55cdbaf28e00] Statistics: 2 seeks, 126 writeouts
[libx264 @ 0x55cdbaf27200] frame I:11    Avg QP:14.29  size: 85265
[libx264 @ 0x55cdbaf27200] frame P:557   Avg QP:18.36  size: 34428
[libx264 @ 0x55cdbaf27200] frame B:870   Avg QP:20.80  size: 12691
[libx264 @ 0x55cdbaf27200] consecutive B-frames: 15.4%  8.3% 10.0% 66.2%
[libx264 @ 0x55cdbaf27200] mb I  I16..4: 17.9% 17.6% 64.5%
[libx264 @ 0x55cdbaf27200] mb P  I16..4:  9.9% 16.6%  7.4%  P16..4: 27.7% 16.2% 11.5%  0.0%  0.0%    skip:10.7%
[libx264 @ 0x55cdbaf27200] mb B  I16..4:  2.5%  3.8%  1.0%  B16..8: 27.6% 12.5%  2.1%  direct:15.3%  skip:35.1%  L0:40.6% L1:37.7% BI:21.7%
[libx264 @ 0x55cdbaf27200] 8x8 transform intra:48.4% inter:32.3%
[libx264 @ 0x55cdbaf27200] coded y,uvDC,uvAC intra: 57.7% 50.7% 14.5% inter: 25.3% 18.7% 0.8%
[libx264 @ 0x55cdbaf27200] i16 v,h,dc,p: 50% 29% 15%  7%
[libx264 @ 0x55cdbaf27200] i8 v,h,dc,ddl,ddr,vr,hd,vl,hu: 19% 42% 18%  3%  3%  3%  5%  3%  5%
[libx264 @ 0x55cdbaf27200] i4 v,h,dc,ddl,ddr,vr,hd,vl,hu: 23% 29% 12%  5%  7%  6%  7%  5%  6%
[libx264 @ 0x55cdbaf27200] i8c dc,h,v,p: 53% 25% 18%  4%
[libx264 @ 0x55cdbaf27200] Weighted P-Frames: Y:12.2% UV:2.9%
[libx264 @ 0x55cdbaf27200] kb/s:4333.15
[aac @ 0x55cdbaf23e80] Qavg: 1161.949
[AVIOContext @ 0x55cdbae39040] Statistics: 80437018 bytes read, 2210 seeks
[AVIOContext @ 0x55cdbae46fc0] Statistics: 1530915 bytes read, 42 seeks
